<svg width="24" height="24" viewBox="0 0 24 24" fill="none" xmlns="http://www.w3.org/2000/svg">
<path d="M13.2966 0.599609C18.9015 0.599785 23.4001 4.86804 23.4001 10.04C23.4001 12.8838 22.0848 15.5029 19.7458 17.3037C19.5775 17.4334 19.4901 17.6426 19.5164 17.8535L19.8962 20.8916C19.9572 21.4227 19.7262 21.9116 19.2849 22.1992C19.0653 22.3403 18.8079 22.417 18.5583 22.417C18.3164 22.4169 18.0783 22.3546 17.864 22.2246L17.8591 22.2217L13.3787 19.5635C13.3125 19.5243 13.2394 19.4989 13.1638 19.4873L13.0867 19.4805L12.7507 19.4678C12.416 19.4513 12.0883 19.4218 11.7761 19.375H11.7751C11.6842 19.3615 11.6097 19.3021 11.5769 19.2168C11.5452 19.1343 11.559 19.0541 11.6179 18.9854C12.4469 18.0186 12.8796 16.8526 12.8796 15.6123C12.8794 12.5348 10.1854 10.1104 6.97241 10.1104C5.77066 10.1104 4.60749 10.4404 3.6228 11.0859C3.54893 11.1329 3.46431 11.1389 3.38354 11.1035C3.32168 11.0726 3.27931 11.0241 3.25854 10.9727L3.24487 10.9209C3.21312 10.6237 3.19214 10.3348 3.19214 10.04C3.19214 4.86793 7.69165 0.599609 13.2966 0.599609ZM13.2966 1.05273C8.22396 1.05273 3.99515 4.74733 3.6814 9.47559C3.66789 9.67997 3.75954 9.87668 3.92456 9.99805C4.08955 10.1194 4.30481 10.1489 4.49585 10.0752C5.26736 9.77701 6.09978 9.6123 6.96167 9.6123C10.519 9.61255 13.3445 12.326 13.3445 15.5908V15.5977C13.3544 16.4785 13.1445 17.3338 12.7488 18.125C12.6524 18.3177 12.6664 18.5474 12.7859 18.7266C12.9057 18.9058 13.1128 19.0075 13.3279 18.9922C13.3411 18.9913 13.3668 18.9941 13.3992 19.0156C13.4078 19.0213 13.4167 19.027 13.4255 19.0322L18.1072 21.8135V21.8115C18.2674 21.9094 18.4468 21.9571 18.6306 21.9414C18.81 21.926 18.9484 21.8558 19.0369 21.7969L19.0359 21.7949C19.2271 21.6698 19.4788 21.3844 19.4207 20.9443H19.4226L18.988 17.4229C18.9778 17.3209 19.0211 17.2306 19.0896 17.1807C21.5143 15.478 22.9246 12.8684 22.9246 10.0176C22.9245 5.03191 18.5673 1.05291 13.2966 1.05273Z" stroke="#001640" stroke-width="1.2" stroke-linejoin="round"/>
<path d="M6.9834 9.62341C10.5408 9.62355 13.3662 12.337 13.3662 15.6019C13.3661 16.931 12.8819 18.2453 11.9902 19.2885L11.9844 19.2963C10.8385 20.6849 9.11553 21.5069 7.19824 21.5687C7.12226 21.5712 7.04781 21.5884 6.97852 21.6185L6.91113 21.6527L4.18652 23.2709C4.03802 23.3586 3.87561 23.3998 3.70898 23.3998C3.53159 23.3997 3.36651 23.3534 3.20996 23.2513L3.20801 23.2504L3.09766 23.1683C2.85729 22.9634 2.7385 22.6641 2.77441 22.347L2.99707 20.6371C3.02367 20.4312 2.94217 20.2262 2.78125 20.0951C1.40669 18.9756 0.59969 17.3233 0.599609 15.6019C0.599609 13.6382 1.62762 11.7921 3.37305 10.6801L3.37695 10.6771C4.42825 9.99358 5.6779 9.62341 6.9834 9.62341ZM6.97168 10.099C5.76926 10.0991 4.60515 10.4293 3.62012 11.0756C2.02964 12.094 1.06445 13.7756 1.06445 15.6019C1.06454 17.3584 1.92698 18.9577 3.42188 19.9808H3.42285C3.49311 20.0297 3.53387 20.1119 3.52637 20.2084L3.28223 22.1146C3.2531 22.3421 3.3562 22.5658 3.54785 22.6918C3.7396 22.8178 3.98631 22.8236 4.18359 22.7064L6.84863 21.1224L6.84961 21.1234C6.90819 21.0893 6.95014 21.0825 6.97168 21.0824C8.77999 21.0824 10.5078 20.3078 11.6133 18.9642C12.4333 17.9927 12.8789 16.8324 12.8789 15.5902C12.8787 12.5229 10.1838 10.099 6.97168 10.099Z" stroke="#001640" stroke-width="1.2" stroke-linejoin="round"/>
<path d="M9 7.5H18" stroke="#001640" stroke-width="1.2" stroke-linecap="round"/>
<path d="M12 12L18 12" stroke="#001640" stroke-width="1.2" stroke-linecap="round"/>
<path d="M4.5 14.25H9" stroke="#001640" stroke-width="1.2" stroke-linecap="round"/>
<path d="M6 17.25H9" stroke="#001640" stroke-width="1.2" stroke-linecap="round"/>
</svg>
