<svg width="24" height="24" viewBox="0 0 24 24" fill="none" xmlns="http://www.w3.org/2000/svg">
<path d="M22.6564 1.78799V7.11599H17.3284" stroke="#001640" stroke-width="1.2" stroke-linecap="round" stroke-linejoin="round"/>
<path d="M1.34363 22.2119L1.34363 16.8839L6.67163 16.8839" stroke="#001640" stroke-width="1.2" stroke-linecap="round" stroke-linejoin="round"/>
<path d="M0.900146 11.9999C0.900147 9.65584 1.64224 7.37192 3.02006 5.47552C4.39788 3.57911 6.3407 2.16757 8.57006 1.4432C10.7994 0.718842 13.2009 0.718842 15.4302 1.44321C17.6596 2.16757 19.6024 3.57911 20.9802 5.47552" stroke="#001640" stroke-width="1.2" stroke-linecap="round"/>
<path d="M23.0999 12C23.0999 14.3441 22.3578 16.628 20.98 18.5244C19.6021 20.4208 17.6593 21.8323 15.43 22.5567C13.2006 23.2811 10.7991 23.2811 8.56978 22.5567C6.34041 21.8323 4.3976 20.4208 3.01978 18.5244" stroke="#001640" stroke-width="1.2" stroke-linecap="round"/>
<rect x="1.50195" y="17.1" width="1.5" height="1.5" fill="#001640"/>
<rect x="21.002" y="5.24994" width="1.5" height="1.5" fill="#001640"/>
</svg>
