<svg width="24" height="22" viewBox="0 0 24 22" fill="none" xmlns="http://www.w3.org/2000/svg">
<path d="M21.6943 17.9577C20.7836 16.9843 19.0789 15.5203 19.0789 10.725C19.0805 9.00414 18.4788 7.33651 17.3772 6.00903C16.2756 4.68156 14.743 3.77724 13.0432 3.45167V2.47501C13.0432 2.27802 13.0042 2.08297 12.9283 1.90098C12.8525 1.71899 12.7414 1.55363 12.6012 1.41435C12.4611 1.27506 12.2948 1.16457 12.1117 1.08919C11.9286 1.0138 11.7324 0.975006 11.5343 0.975006C11.3361 0.975006 11.1399 1.0138 10.9568 1.08919C10.7738 1.16457 10.6074 1.27506 10.4673 1.41435C10.3272 1.55363 10.216 1.71899 10.1402 1.90098C10.0644 2.08297 10.0253 2.27802 10.0253 2.47501V3.45167C8.32551 3.77724 6.79295 4.68156 5.69136 6.00903C4.58977 7.33651 3.98803 9.00414 3.98966 10.725C3.98966 15.5203 2.28491 16.9843 1.37419 17.9577C1.11442 18.2331 0.9715 18.5975 0.975166 18.975C0.975342 19.1723 1.01465 19.3677 1.09083 19.5499C1.16702 19.7321 1.27859 19.8976 1.41917 20.0369C1.55975 20.1762 1.72658 20.2866 1.91011 20.3618C2.09364 20.437 2.29028 20.4754 2.48878 20.475H20.5865C20.785 20.4754 20.9816 20.437 21.1651 20.3618C21.3487 20.2866 21.5155 20.1762 21.6561 20.0369C21.7967 19.8976 21.9082 19.7321 21.9844 19.5499C22.0606 19.3677 22.0999 19.1723 22.1001 18.975C22.1019 18.5966 21.9566 18.232 21.6943 17.9577Z" stroke="#3F80FF" stroke-width="1.95"/>
</svg>
