<svg width="24" height="24" viewBox="0 0 24 24" fill="none" xmlns="http://www.w3.org/2000/svg">
<path d="M14.2021 22.139C14.2021 22.1385 14.202 22.138 14.2018 22.1375L13.3105 20.5379C12.7385 19.5113 11.2618 19.5113 10.6898 20.5379L9.79815 22.1382C9.59923 22.4949 9.27188 22.7551 8.88798 22.8618C8.50409 22.9685 8.09503 22.9129 7.75065 22.7072L5.15115 21.1525C4.80664 20.9463 4.55525 20.6067 4.4523 20.2085C4.34934 19.8102 4.40324 19.3858 4.60215 19.0287L5.56163 17.3066C6.11869 16.3068 5.39583 15.0766 4.25129 15.0766H2.40015C2.00232 15.0766 1.62079 14.9128 1.33949 14.6212C1.05818 14.3296 0.900146 13.9342 0.900146 13.5218V10.4123C0.900146 10 1.05818 9.60455 1.33949 9.31298C1.62079 9.02141 2.00232 8.85761 2.40015 8.85761H4.25129C5.39583 8.85761 6.1187 7.62736 5.56163 6.62753L4.60215 4.90546C4.50343 4.72858 4.43931 4.53326 4.41348 4.33068C4.38764 4.12809 4.40059 3.92222 4.45158 3.72483C4.50257 3.52744 4.5906 3.3424 4.71063 3.1803C4.83067 3.0182 4.98036 2.88221 5.15115 2.78012L7.74915 1.22538C8.09366 1.01922 8.50308 0.963351 8.88734 1.07007C9.2716 1.17678 9.59923 1.43734 9.79815 1.79442L10.6901 3.39598C11.2619 4.42267 12.7387 4.42288 13.3108 3.39636L14.2036 1.79442C14.4026 1.43776 14.7299 1.1775 15.1138 1.07081C15.4977 0.96412 15.9068 1.01971 16.2511 1.22538L18.8506 2.78012C19.1947 2.9863 19.4458 3.32559 19.5488 3.7235C19.6517 4.12141 19.5981 4.54539 19.3996 4.90235L18.4385 6.62759C17.8815 7.62742 18.6044 8.85761 19.7489 8.85761H21.6001C21.998 8.85761 22.3795 9.02141 22.6608 9.31298C22.9421 9.60455 23.1001 10 23.1001 10.4123V13.5218C23.1001 13.9342 22.9421 14.3296 22.6608 14.6212C22.3795 14.9128 21.998 15.0766 21.6001 15.0766H19.7485C18.6041 15.0766 17.8812 16.3066 18.4381 17.3064L19.3981 19.0303C19.597 19.3874 19.651 19.8117 19.548 20.21C19.445 20.6083 19.1937 20.9479 18.8491 21.1541L16.2511 22.7088C15.9066 22.915 15.4972 22.9708 15.1129 22.8641C14.7289 22.7575 14.4015 22.4972 14.2025 22.1404C14.2023 22.14 14.2021 22.1395 14.2021 22.139Z" stroke="#001640" stroke-width="1.2" stroke-linejoin="round"/>
<circle cx="12" cy="12" r="3.9" stroke="#001640" stroke-width="1.2"/>
</svg>
