<svg width="312" height="219" viewBox="0 0 312 219" fill="none" xmlns="http://www.w3.org/2000/svg">
<path d="M156 12.75C194.104 12.75 228.633 23.5322 253.656 41.0029C278.677 58.4719 294.25 82.6775 294.25 109.5C294.25 136.322 278.677 160.528 253.656 177.997C228.633 195.468 194.104 206.25 156 206.25C117.896 206.25 83.367 195.468 58.3438 177.997C33.323 160.528 17.75 136.322 17.75 109.5C17.75 82.6775 33.323 58.4719 58.3438 41.0029C83.367 23.5322 117.896 12.75 156 12.75Z" stroke="#D9E6FF" stroke-width="1.5"/>
<path d="M156 6.75C196.589 6.75 233.368 18.2035 260.02 36.7598C286.669 55.3142 303.25 81.0197 303.25 109.5C303.25 137.98 286.669 163.686 260.02 182.24C233.368 200.796 196.589 212.25 156 212.25C115.411 212.25 78.6323 200.796 51.9805 182.24C25.3313 163.686 8.75 137.98 8.75 109.5C8.75 81.0197 25.3313 55.3142 51.9805 36.7598C78.6323 18.2035 115.411 6.75 156 6.75Z" stroke="#D9E6FF" stroke-width="1.5"/>
<path d="M156 0.75C198.799 0.75 237.578 12.8751 265.678 32.5176C293.775 52.1584 311.25 79.3642 311.25 109.5C311.25 139.636 293.775 166.842 265.678 186.482C237.578 206.125 198.799 218.25 156 218.25C113.201 218.25 74.4219 206.125 46.3223 186.482C18.225 166.842 0.75 139.636 0.75 109.5C0.75 79.3642 18.225 52.1584 46.3223 32.5176C74.4219 12.8751 113.201 0.75 156 0.75Z" stroke="#D9E6FF" stroke-width="1.5"/>
<circle cx="26" cy="172" r="10.5" fill="#D9E6FF"/>
<circle cx="36.5" cy="58.5" r="8" fill="#D9E6FF"/>
<circle cx="280" cy="60" r="9.5" fill="#D9E6FF"/>
<circle cx="259" cy="182" r="11.5" fill="#D9E6FF"/>
</svg>
